Coordinates
version=1
nRows=26
nColumns=22
inDegrees=yes

Units are S.I. units (second, meters, Newtons, ...)
If the header above contains a line with 'inDegrees', this indicates whether rotational values are in degrees (yes) or radians (no).

endheader
time	pelvis_tilt	pelvis_list	pelvis_rotation	pelvis_tx	pelvis_ty	pelvis_tz	hip_flexion_r	hip_adduction_r	hip_rotation_r	knee_angle_r	ankle_angle_r	subtalar_angle_r	hip_flexion_l	hip_adduction_l	hip_rotation_l	knee_angle_l	ankle_angle_l	subtalar_angle_l	lumbar_extension	lumbar_bending	lumbar_rotation
      2.59000000	     -8.04929161	      4.64003416	    -26.75768753	      0.24631638	      0.89439634	      0.35356569	     36.42720601	     -3.90305032	    -12.43098415	    -17.88322119	    -10.98129449	      5.67700540	    -10.69187957	     -4.43027896	     10.60120303	    -27.23660738	    -15.84679471	     10.08183359	      0.33908400	      3.01254522	     -2.96532508
      2.60000000	     -7.72671152	      5.10375583	    -26.82188091	      0.26926651	      0.89270624	      0.36860439	     35.78388173	     -4.10769381	    -12.80178001	    -13.85711343	    -13.69863867	      6.38328194	    -10.35006162	     -4.12296393	      9.56350592	    -30.10414637	    -15.90420092	      8.39790391	      0.98275245	      2.51197384	     -2.72639157
      2.61000000	     -7.35825464	      5.39776970	    -27.01403519	      0.29174986	      0.89009925	      0.38382353	     35.32204817	     -4.15016119	    -13.04390037	    -11.11957904	    -15.80697456	      6.86047780	     -9.89639261	     -4.01306095	      8.25483634	    -33.43382139	    -15.45888283	      6.72202847	      1.42688386	      2.15417234	     -2.28989088
      2.62000000	     -6.92053370	      5.51078990	    -27.35486561	      0.31376946	      0.88672805	      0.39915468	     34.97472942	     -4.02872558	    -13.04773592	     -9.65926430	    -17.18324595	      7.06547553	     -9.42385607	     -4.08173363	      6.84152336	    -37.07704479	    -14.69489342	      5.13623695	      1.63671962	      1.95320767	     -1.64384265
      2.63000000	     -6.40112440	      5.42887423	    -27.83120134	      0.33537187	      0.88271448	      0.41447574	     34.66211254	     -3.75338361	    -12.73577764	     -9.40798438	    -17.66435123	      6.88954643	     -8.98185375	     -4.30939364	      5.46151086	    -40.94562156	    -13.71607062	      3.77853252	      1.59123935	      1.92832232	     -0.82923908
      2.64000000	     -5.78869429	      5.15235061	    -28.42934706	      0.35660077	      0.87816416	      0.42966667	     34.35256681	     -3.34850499	    -12.10430560	    -10.32950027	    -17.08524714	      6.21156106	     -8.59478611	     -4.66099388	      4.18635801	    -44.97776941	    -12.62686653	      2.74000273	      1.27542216	      2.07633541	      0.13466822
      2.65000000	     -5.07448871	      4.68166726	    -29.12059575	      0.37750738	      0.87319333	      0.44459467	     34.04112496	     -2.84055813	    -11.22311700	    -12.39384855	    -15.30765406	      4.92995173	     -8.26856089	     -5.11224030	      3.03787074	    -49.12779021	    -11.54418600	      2.04831474	      0.67728440	      2.39217824	      1.20925273
      2.66000000	     -4.25483263	      4.03293549	    -29.85720996	      0.39811469	      0.86791468	      0.45913232	     33.72686073	     -2.26465787	    -10.20869857	    -15.50979040	    -12.32820520	      3.10264509	     -7.98474889	     -5.63448094	      2.04098049	    -53.36194581	    -10.51620709	      1.74942988	     -0.20425233	      2.84196359	      2.34938996
      2.67000000	     -3.35541411	      3.21502113	    -30.59647026	      0.41844444	      0.86241962	      0.47319737	     33.41611297	     -1.62639580	     -9.17982750	    -19.52110144	     -8.35216804	      0.91105905	     -7.70724807	     -6.22915952	      1.19895286	    -57.64212893	     -9.53318536	      1.80197149	     -1.33746203	      3.42070849	      3.51558712
      2.68000000	     -2.40183591	      2.29800775	    -31.29603699	      0.43843501	      0.85681345	      0.48673496	     33.06122740	     -0.96451952	     -8.17635536	    -24.06689606	     -3.73724025	     -1.36288314	     -7.34014821	     -6.86315582	      0.49287593	    -61.95265309	     -8.53419335	      2.12537392	     -2.65799778	      4.04956755	      4.64928779
      2.69000000	     -1.44117098	      1.34298351	    -31.93323792	      0.45803064	      0.85126724	      0.49970688	     32.65388446	     -0.31268815	     -7.26221694	    -28.83247406	      1.02186758	     -3.43661467	     -6.79005276	     -7.49865048	     -0.05411379	    -66.23593774	     -7.52173110	      2.59042363	     -4.08146716	      4.68429097	      5.74709988
      2.70000000	     -0.54482074	      0.42796086	    -32.48857958	      0.47712837	      0.84597589	      0.51209004	     32.17785223	      0.30107804	     -6.43455181	    -33.44839487	      5.55977643	     -5.10463249	     -5.90911376	     -8.10975504	     -0.43945984	    -70.44988077	     -6.48140427	      3.05443062	     -5.48645144	      5.28207136	      6.76886059
      2.71000000	      0.21311854	     -0.41083067	    -32.93147688	      0.49569232	      0.84114398	      0.52385430	     31.62674444	      0.85807848	     -5.76005325	    -37.64916764	      9.61632697	     -6.33045100	     -4.57886586	     -8.72127512	     -0.65915348	    -74.54722699	     -5.35956862	      3.41927687	     -6.76433258	      5.85549789	      7.67325975
      2.72000000	      0.81026543	     -1.10007727	    -33.26137292	      0.51370037	      0.83695588	      0.53502568	     31.02187447	      1.29471859	     -5.23821078	    -41.30250740	     13.12199952	     -7.07133861	     -2.72725673	     -9.27024371	     -0.71181444	    -78.44144568	     -4.19944572	      3.62598597	     -7.82770819	      6.34975363	      8.44076659
      2.73000000	      1.27061167	     -1.62252429	    -33.47099417	      0.53122070	      0.83360060	      0.54564453	     30.33390597	      1.56291835	     -4.88792535	    -44.35571746	     16.07102023	     -7.42313968	     -0.39204681	     -9.72128094	     -0.61835886	    -82.02087876	     -2.97226573	      3.70212060	     -8.65811544	      6.74304397	      9.04932193
      2.74000000	      1.61155404	     -1.95426557	    -33.58101698	      0.54829763	      0.83116850	      0.55581395	     29.55996329	      1.64780921	     -4.67922310	    -46.79818901	     18.54537965	     -7.59536625	      2.39171719	    -10.02403937	     -0.42408157	    -85.18172822	     -1.83735154	      3.69307396	     -9.22815202	      7.00047427	      9.52470379
      2.75000000	      1.89081529	     -2.14350560	    -33.61424105	      0.56502847	      0.82975839	      0.56565542	     28.64446817	      1.56213697	     -4.61590235	    -48.68166954	     20.53945562	     -7.54630247	      5.45082547	    -10.18396917	     -0.20396977	    -87.80594235	     -0.65971177	      3.64210379	     -9.59780500	      7.12854804	      9.88702453
      2.76000000	      2.13747451	     -2.22504675	    -33.65300357	      0.58145254	      0.82939867	      0.57534535	     27.56276845	      1.37356462	     -4.60523125	    -50.04288155	     22.12763767	     -7.35922168	      8.64241058	    -10.21508004	     -0.07200008	    -89.80296506	      0.44704606	      3.57229877	     -9.80876431	      7.13016824	     10.23914458
      2.77000000	      2.37707570	     -2.24599079	    -33.75368250	      0.59761061	      0.83009500	      0.58507767	     26.29264362	      1.14935799	     -4.58638934	    -50.93537403	     23.32419746	     -7.06549447	     11.81007832	    -10.18098670	     -0.11783337	    -91.09516845	      1.49265601	      3.49735519	     -9.91040053	      7.01136875	     10.66425190
      2.78000000	      2.63158603	     -2.25370271	    -33.98693162	      0.61354698	      0.83183242	      0.59496762	     24.82172717	      0.94974915	     -4.48794110	    -51.41503793	     24.14333308	     -6.70049009	     14.80707191	    -10.14295997	     -0.41729932	    -91.64346832	      2.48631380	      3.41878683	     -9.96544865	      6.80199286	     11.20979970
      2.79000000	      2.90704330	     -2.28292127	    -34.38545207	      0.62927575	      0.83455805	      0.60509073	     23.16514924	      0.81084701	     -4.27430107	    -51.54497427	     24.58846342	     -6.29575391	     17.53878528	    -10.16679537	     -0.99057655	    -91.43715096	      3.40383956	      3.32546130	    -10.01352468	      6.52183561	     11.90890770
      2.80000000	      3.17456145	     -2.34137111	    -34.94751778	      0.64485369	      0.83814456	      0.61543051	     21.37476282	      0.75199985	     -3.91286741	    -51.37427243	     24.66030477	     -5.93213125	     19.98457632	    -10.28093606	     -1.79686697	    -90.49927216	      4.24631261	      3.22750736	    -10.03943075	      6.20694512	     12.75342363
      2.81000000	      3.43738863	     -2.41874736	    -35.64054297	      0.66037342	      0.84250324	      0.62589846	     19.48681931	      0.71412951	     -3.44074880	    -50.96068686	     24.38165969	     -5.32600105	     22.11790268	    -10.46219095	     -2.79125311	    -88.84815620	      4.98088481	      3.00209353	    -10.04728303	      5.86316417	     13.69844080
      2.82000000	      3.62794498	     -2.50759787	    -36.46997813	      0.67582215	      0.84741756	      0.63652535	     17.60712247	      0.74244286	     -2.82006161	    -50.36626619	     23.74434123	     -4.83557368	     23.98834379	    -10.75137518	     -3.93175680	    -86.53264556	      5.54290650	      2.82266777	     -9.97440696	      5.53001154	     14.76848941
      2.83000000	      3.76026080	     -2.58295950	    -37.36364123	      0.69132571	      0.85278997	      0.64717369	     15.76667601	      0.76266874	     -2.09973852	    -49.65139798	     22.77048313	     -4.26411140	     25.59623285	    -11.06444042	     -5.13291356	    -83.58195758	      5.88322545	      2.64743984	     -9.81339134	      5.20571213	     15.87611676
      2.84000000	      3.83107007	     -2.62354211	    -38.26810588	      0.70694677	      0.85848380	      0.65775175	     14.01803001	      0.73604496	     -1.32249831	    -48.88076292	     21.47798738	     -3.61150609	     26.96438052	    -11.34280607	     -6.32598870	    -80.03169674	      5.92014594	      2.53495179	     -9.54716358	      4.89565301	     16.97290608
